Coordinates
version=1
nRows=38
nColumns=12
inDegrees=yes

Units are S.I. units (second, meters, Newtons, ...)
Angles are in degrees

endheader
time	SC_y	SC_z	SC_x	AC_y	AC_z	AC_x	GH_y	GH_z	GH_yy	EL_x	PS_y
       0.0              -25.24          36.02          50.19          48.15         -8.071          17.39         -14.44          10.56         -52.16          58.29          69.17
   0.03358              -25.25          36.01          50.19          48.16         -8.069          17.39         -14.45          10.56         -52.14          58.28          69.18
   0.06716              -25.25           36.0           50.2          48.16         -8.066          17.38         -14.45          10.56         -52.12          58.28          69.18
    0.1007              -25.26           36.0           50.2          48.16         -8.063          17.38         -14.46          10.56         -52.11          58.27          69.19
    0.1343              -25.26          35.99           50.2          48.17          -8.06          17.38         -14.47          10.56         -52.09          58.27          69.19
    0.1679              -25.27          35.98          50.21          48.17         -8.057          17.37         -14.47          10.56         -52.06          58.26           69.2
    0.2015              -25.27          35.98          50.21          48.17         -8.054          17.37         -14.48          10.56         -52.04          58.26           69.2
    0.2351              -25.28          35.97          50.22          48.18          -8.05          17.36         -14.49          10.56         -52.02          58.25          69.21
    0.2687              -25.28          35.96          50.22          48.18         -8.046          17.36          -14.5          10.56         -51.99          58.24          69.22
    0.3022              -25.29          35.95          50.22          48.19         -8.042          17.35         -14.51          10.56         -51.96          58.23          69.22
    0.3358               -25.3          35.94          50.23          48.19         -8.038          17.35         -14.51          10.56         -51.93          58.23          69.23
    0.3694               -25.3          35.93          50.24           48.2         -8.033          17.34         -14.53          10.56          -51.9          58.22          69.24
     0.403              -25.31          35.91          50.24           48.2         -8.028          17.34         -14.54          10.56         -51.87          58.21          69.25
    0.4366              -25.32           35.9          50.25          48.21         -8.022          17.33         -14.55          10.56         -51.83           58.2          69.26
    0.4702              -25.33          35.89          50.25          48.22         -8.016          17.32         -14.56          10.56         -51.79          58.18          69.27
    0.5037              -25.34          35.87          50.26          48.23          -8.01          17.31         -14.58          10.57         -51.75          58.17          69.28
    0.5373              -25.35          35.85          50.27          48.23         -8.003           17.3         -14.59          10.57          -51.7          58.16          69.29
    0.5709              -25.37          35.84          50.28          48.24         -7.995          17.29         -14.61          10.57         -51.65          58.14          69.31
    0.6045              -25.38          35.82          50.29          48.25         -7.987          17.28         -14.63          10.57         -51.59          58.13          69.32
    0.6381               -25.4          35.79           50.3          48.26         -7.977          17.27         -14.65          10.57         -51.53          58.11          69.34
    0.6716              -25.41          35.77          50.31          48.28         -7.967          17.26         -14.67          10.57         -51.46          58.09          69.36
    0.7052              -25.43          35.74          50.32          48.29         -7.956          17.25         -14.69          10.57         -51.39          58.07          69.38
    0.7388              -25.45          35.72          50.34           48.3         -7.944          17.23         -14.72          10.57          -51.3          58.05           69.4
    0.7724              -25.47          35.68          50.36          48.32          -7.93          17.21         -14.75          10.57         -51.21          58.02          69.42
     0.806               -25.5          35.65          50.37          48.34         -7.915          17.19         -14.78          10.57         -51.11          57.99          69.45
    0.8396              -25.52          35.61          50.39          48.36         -7.898          17.17         -14.82          10.57          -51.0          57.96          69.48
    0.8731              -25.55          35.56          50.41          48.38         -7.879          17.15         -14.86          10.57         -50.87          57.92          69.51
    0.9067              -25.59          35.51          50.44          48.41         -7.858          17.12          -14.9          10.57         -50.73          57.88          69.55
    0.9403              -25.63          35.46          50.47          48.44         -7.834          17.09         -14.95          10.58         -50.57          57.84          69.59
    0.9739              -25.67          35.39           50.5          48.47         -7.807          17.06         -15.01          10.58         -50.38          57.78          69.64
     1.007              -25.72          35.32          50.54           48.5         -7.775          17.02         -15.08          10.58         -50.17          57.72           69.7
     1.041              -25.78          35.23          50.58          48.55          -7.74          16.98         -15.16          10.58         -49.93          57.65          69.76
     1.075              -25.85          35.14          50.63           48.6         -7.698          16.92         -15.25          10.58         -49.66          57.58          69.84
     1.108              -25.93          35.02          50.68          48.65          -7.65          16.86         -15.35          10.59         -49.33          57.48          69.92
     1.142              -26.02          34.89          50.75          48.72         -7.594          16.79         -15.47          10.59         -48.96          57.38          70.02
     1.175              -26.13          34.73          50.82           48.8         -7.528          16.71         -15.61          10.59         -48.51          57.25          70.14
     1.209              -26.25          34.55          50.92          48.89         -7.449          16.61         -15.78           10.6         -47.99           57.1          70.28
     1.243              -26.41          34.32          51.03          49.01         -7.354           16.5         -15.99           10.6         -47.35          56.92          70.45
